<?xml version="1.0" encoding="UTF-8" standalone="no"?><!DOCTYPE svg PUBLIC "-//W3C//DTD SVG 1.1//EN" "http://www.w3.org/Graphics/SVG/1.1/DTD/svg11.dtd"><svg width="100%" height="100%" viewBox="0 0 1146 409" version="1.1" xmlns="http://www.w3.org/2000/svg" xmlns:xlink="http://www.w3.org/1999/xlink" xml:space="preserve" xmlns:serif="http://www.serif.com/" style="fill-rule:evenodd;clip-rule:evenodd;stroke-linejoin:round;stroke-miterlimit:2;"><g id="Fondo"><path d="M12.763,143.763c0.274,-12.493 -0.266,-14.007 10.401,-20.427c54.653,-32.888 54.5,-33.105 59.276,-35.922c45.935,-27.1 45.708,-27.339 49.702,-29.683c28.189,-16.542 34.724,-21.094 49.583,-29.85c25.377,-14.954 25.909,-15.319 49.525,-15.365c216.666,-0.001 433.333,-0.002 649.999,-0.004c50.332,-0 51.352,-1.408 71.133,9.886c3.377,1.928 37.012,21.132 42.069,24.337c7.482,4.741 48.86,28.477 53.126,30.924c5.308,3.045 58.758,33.706 66.241,38.258c16.899,10.28 21.906,11.059 23.197,19.25c0.9,5.711 0.616,227.394 0.284,237.754c-0.34,10.579 0.465,15.206 -14.388,14.806c-9.931,-0.267 -9.931,-0.24 -1062.496,-0.24c-42.435,-0 -45.584,1.134 -47.43,-5.797c-0.874,-3.28 -0.276,-218.894 -0.223,-237.928Z" style="fill:#212121;"/><path d="M1077.096,340.78c-80.676,0.048 -1000.25,0.593 -1008.445,0.025c-11.698,-0.812 -9.154,-11.365 -9.186,-17.88c-0.036,-7.285 -0.04,-137.07 0.007,-137.593c0.468,-5.249 2.122,-8.359 9.255,-8.628c23.319,-0.881 23.319,0.03 291.691,0.03c237.5,-0.006 475,-0.012 712.499,-0.018c1.227,0.002 13.049,0.021 15.216,1.964c3.221,2.888 2.318,3.789 2.428,106.735c0.054,50.558 0.806,52.809 -4.94,54.716c-0.649,0.215 -0.63,0.048 -8.523,0.651Z" style="fill:#fdfdfd;"/><path d="M1002.084,129.715c-283.332,-0.001 -566.664,-0.003 -849.996,-0.004c-38.202,-0.103 -38.692,2.9 -41.265,0.83c-0.765,-0.616 -1.055,-5.406 0.273,-6.933c1.64,-1.886 3.088,0.653 27.585,-14.672c15.764,-9.862 66.047,-39.586 72.243,-43.508c12.048,-7.627 16.572,-6.19 32.825,-6.19c672.403,0.002 672.368,-0.054 675.112,0.349c2.523,0.37 5.795,0.85 28.463,14.342c4.023,2.394 3.966,2.302 8.088,4.641c6.529,3.705 6.4,3.821 12.932,7.555c46.273,26.45 46.031,26.774 50.142,28.904c17.739,9.191 18.451,8.05 19.469,9.45c0.08,0.11 0.294,5.103 0.224,5.189c-2.206,2.715 -3.064,0.293 -36.096,0.047Z" style="fill:#fdfdfd;"/><path d="M1052.083,270.39c1.033,0.067 11.247,0.726 12.736,2.288c2.053,2.156 2.636,4.35 2.39,33.547c-0.063,7.475 0.298,9.061 -6.989,10.969c-0.411,0.108 -11.319,0.103 -12.304,0.102c-44.117,-0.019 -49.425,1.4 -50.995,-6.69c-0.177,-0.915 -0.287,-31.954 0.089,-33.712c0.977,-4.574 4.857,-6.026 5.48,-6.26c0.469,-0.176 0.48,-0.248 49.593,-0.245Z" style="fill:#232323;"/><path d="M906.247,270.396c2.633,0.008 12.468,-0.721 17.266,1.737c2.461,1.26 3.259,1.87 2.961,34.107c-0.127,13.696 -8.043,11.057 -20.226,11.059c-44.165,0.007 -46.294,0.703 -48.74,-3.453c-1.833,-3.114 -2.103,-36.627 0.097,-40.091c2.611,-4.112 9.48,-3.378 48.641,-3.358Z" style="fill:#222;"/><path d="M1039.583,200.187c1.699,0 20.21,0.005 21.237,0.229c6.766,1.474 6.216,3.147 6.378,10.041c0.679,28.899 -0.698,31.448 -1.986,33.834c-1.832,3.392 -6.316,2.6 -50.622,2.603c-12.903,0.001 -17.501,1.43 -17.772,-11.448c-0.628,-29.842 0.146,-30.75 1.847,-32.748c2.607,-3.061 10.802,-2.794 11.768,-2.762c14.6,0.476 14.502,0.256 29.15,0.251Z" style="fill:#212121;"/><path d="M893.746,200.195c26.833,-0.016 32.239,-2.206 32.671,10.243c1.073,30.88 -0.55,32.464 -2.524,34.391c-2.959,2.889 -11.707,2.09 -17.646,2.091c-44.191,0.006 -44.613,0.298 -46.934,-1.766c-3.881,-3.45 -3.115,-9.496 -3.058,-26.404c0.047,-13.944 -1.462,-19.224 12.501,-18.825c12.519,0.358 12.463,0.265 24.99,0.27Z" style="fill:#202020;"/><path d="M340.69,281.257c-0.8,7.395 0.626,8.095 -2.593,10.757c-4.152,3.435 -38.386,1.753 -39.923,1.11c-3.87,-1.618 -4.345,-7.001 -4.407,-7.709c-0.759,-8.599 -0.126,-26.835 -0.045,-29.167c0.397,-11.425 7.984,-9.452 33.361,-9.399c0.924,0.002 9.084,0.019 11.33,2.267c2.897,2.899 2.26,11.092 2.277,32.141Z" style="fill:#1f1f1f;"/><path d="M131.254,246.859c11.014,-0.01 21.404,-2.436 21.918,9.321c0.117,2.679 1.231,28.152 -0.855,33.512c-1.961,5.04 -11.217,4.35 -29.401,4.219c-0.98,-0.007 -10.393,-0.074 -12.222,-0.84c-3.823,-1.601 -4.32,-6.956 -4.385,-7.659c-0.111,-1.196 -0.101,-28.29 -0.062,-29.162c0.033,-0.749 0.303,-6.878 4.13,-8.415c3.456,-1.388 19.044,-0.968 20.877,-0.976Z" style="fill:#1f1f1f;"/><path d="M506.25,246.86c10.2,0.035 21.312,-2.439 21.91,9.311c0.067,1.32 0.046,27.886 -0.063,29.349c-0.592,7.951 -6.248,8.242 -9.339,8.368c-2.646,0.107 -27.629,1.122 -33.09,-0.752c-5.503,-1.887 -4.454,-11.337 -4.436,-32.719c0.015,-17.472 7.518,-13.548 25.018,-13.557Z" style="fill:#1f1f1f;"/><path d="M693.75,246.88c1.348,0 15.168,0.005 16.843,0.536c3.393,1.075 4.322,4.015 4.475,4.499c0.551,1.743 0.571,11.65 0.573,12.664c0.042,20.462 2.226,28.632 -9.387,29.252c-2.331,0.124 -15.861,0.846 -29.183,0.049c-0.707,-0.042 -5.912,-0.354 -7.583,-4.58c-1.902,-4.812 -0.813,-30.405 -0.7,-33.047c0.495,-11.618 9.712,-9.387 24.961,-9.372Z" style="fill:#1e1e1e;"/><path d="M762.372,281.245c0,-19.17 -0.406,-29.92 2.816,-32.579c1.486,-1.226 1.541,-2.173 32.749,-1.758c6.928,0.092 8.381,-0.862 10.98,5.551c0.384,0.947 0.411,12.284 0.372,24.626c-0.04,12.444 1.047,16.735 -11.371,16.818c-30.277,0.204 -34.163,1.133 -35.532,-8.587c-0.189,-1.344 0.174,-2.727 -0.015,-4.071Z" style="fill:#212121;"/><path d="M602.086,246.862c1.871,0.024 16.243,-1.5 18.543,4.145c1.441,3.537 2.456,36.129 -0.46,39.603c-3.669,4.372 -10.116,3.307 -26.42,3.281c-1.262,-0.002 -13.48,-0.021 -15.697,-1.547c-3.613,-2.487 -3.213,-13.68 -3.198,-27.758c0.001,-1.049 0.011,-10.593 0.943,-13.079c2.287,-6.101 14.594,-4.644 26.289,-4.647Z" style="fill:#212121;"/><path d="M222.914,246.854c1.346,0.001 16.009,0.01 16.824,0.153c4.631,0.812 4.92,1.044 6.683,5.442c0.557,1.39 0.313,32.643 0.298,32.881c-0.677,10.423 -7.976,8.654 -32.137,8.606c-12.95,-0.025 -14.427,-2.193 -14.438,-12.688c-0.024,-23.257 -0.064,-23.207 0.032,-25.164c0.565,-11.484 9.92,-9.205 22.738,-9.23Z" style="fill:#202020;"/><path d="M402.082,246.87c3.867,-0.004 24.059,-0.076 25.149,0.113c6.846,1.188 7.057,8.385 7.084,9.321c0.068,2.322 0.596,20.356 -0.007,29.039c-0.723,10.423 -9.261,8.58 -28.058,8.571c-14.061,-0.007 -19.286,1.37 -18.898,-12.668c0.64,-23.172 0.2,-23.157 0.309,-25.168c0.59,-10.939 8.685,-9.009 14.421,-9.208Z" style="fill:#202020;"/></g></svg>